<?xml version="1.0" encoding="UTF-8" standalone="no"?>
<svg xmlns:dc="http://purl.org/dc/elements/1.1/" xmlns:cc="http://creativecommons.org/ns#" xmlns:rdf="http://www.w3.org/1999/02/22-rdf-syntax-ns#" xmlns:svg="http://www.w3.org/2000/svg" xmlns="http://www.w3.org/2000/svg" xmlns:sodipodi="http://sodipodi.sourceforge.net/DTD/sodipodi-0.dtd" xmlns:inkscape="http://www.inkscape.org/namespaces/inkscape" version="1.1" id="svg2" xml:space="preserve" width="1141.4174" height="812.604" viewBox="0 0 1141.4174 812.604" sodipodi:docname="ashagari final.ai">
  <metadata id="metadata8">
    <rdf:RDF>
      <cc:Work rdf:about="">
        <dc:format>image/svg+xml</dc:format>
        <dc:type rdf:resource="http://purl.org/dc/dcmitype/StillImage" />
      </cc:Work>
    </rdf:RDF>
  </metadata>
  <defs id="defs6">
    <clipPath clipPathUnits="userSpaceOnUse" id="clipPath18">
      <path d="M 0,609.453 H 856.063 V 0 H 0 Z" id="path16" />
    </clipPath>
  </defs>
  <sodipodi:namedview pagecolor="#ffffff" bordercolor="#666666" borderopacity="1" objecttolerance="10" gridtolerance="10" guidetolerance="10" inkscape:pageopacity="0" inkscape:pageshadow="2" inkscape:window-width="640" inkscape:window-height="480" id="namedview4" />
  <g id="g10" inkscape:groupmode="layer" inkscape:label="ashagari final" transform="matrix(1.3333333,0,0,-1.3333333,0,812.604)">
    <g id="g12">
      <g id="g14" clip-path="url(#clipPath18)">
        <g id="g20" transform="translate(490.7741,385.3625)">
          <path d="m 0,0 c -51.44,14.028 -143.424,-58.271 -145.433,-55.623 -1.534,2.009 38.233,50.088 79.862,74.11 49.02,28.312 63.143,22.065 65.699,22.048 0.184,0.011 1.758,0.005 2.287,0.901 -23.992,3.585 -80.233,6.08 -141.471,-82.958 -16.616,-24.166 -3.865,-14.649 17.985,-1.917 31.808,18.577 67.841,36.132 102.365,40.369 C 3.039,-0.401 17.979,-11.373 25.91,-23.866 20.981,-12.385 12.154,-3.336 0,0" style="fill:#5d5d5e;fill-opacity:1;fill-rule:nonzero;stroke:none" id="path22" />
        </g>
        <g id="g24" transform="translate(492.8571,428.9841)">
          <path d="m 0,0 c -21.885,37.63 -130.527,-27.072 -134.107,-15.874 -4.192,13.133 53.622,55.404 41.356,73.579 -9.938,14.752 -36.808,17.059 -61.592,6.528 7.046,1.208 18.672,2.055 32.975,-2.144 54.739,-16.075 -60.654,-85.58 -10.685,-84.193 23.976,0.621 105.52,49.157 132.432,20.02 C 0.589,-1.628 0.572,-0.985 0,0" style="fill:#5d5d5e;fill-opacity:1;fill-rule:nonzero;stroke:none" id="path26" />
        </g>
        <g id="g28" transform="translate(520.8425,332.844)">
          <path d="M 0,0 C 0.013,0.012 0.021,0.021 0.031,0.033 0.033,0.037 0.033,0.041 0.033,0.045 0.021,0.032 0.013,0.013 0,0" style="fill:#5d5d5e;fill-opacity:1;fill-rule:nonzero;stroke:none" id="path30" />
        </g>
        <g id="g32" transform="translate(415.0583,500.2614)">
          <path d="m 0,0 c -29.903,7.6 -58.783,10.813 -79.891,-8.513 1.108,0.528 2.228,0.992 3.347,1.469 24.784,10.531 51.654,8.224 61.591,-6.528 12.266,-18.176 -45.547,-60.446 -41.356,-73.579 3.581,-11.198 112.223,53.504 134.108,15.874 0.572,-0.986 0.589,-1.629 0.379,-2.085 -0.016,-0.033 -0.031,-0.069 -0.047,-0.101 -0.529,-0.896 -2.104,-0.89 -2.287,-0.901 -2.556,0.017 -16.679,6.264 -65.699,-22.048 -41.629,-24.022 -81.396,-72.101 -79.862,-74.11 2.009,-2.648 93.992,69.651 145.433,55.623 12.154,-3.336 20.981,-12.385 25.91,-23.866 3.701,-8.622 5.175,-18.608 4.191,-28.608 0,-0.004 0,-0.007 -0.002,-0.012 -0.279,-2.859 -0.725,-5.719 -1.419,-8.545 -0.33,-9.662 -7.763,-30.56 2.593,-10.814 C 127.045,-148.512 123.027,-31.31 0,0" style="fill:#0fb899;fill-opacity:1;fill-rule:nonzero;stroke:none" id="path34" />
        </g>
        <g id="g36" transform="translate(498.9567,306.0827)">
          <path d="M 0,0 C 0.22,0.183 0.402,0.366 0.622,0.567 0.402,0.366 0.22,0.183 0,0" style="fill:#ffffff;fill-opacity:1;fill-rule:nonzero;stroke:none" id="path38" />
        </g>
        <g id="g40" transform="translate(392.7541,265.9685)">
          <path d="m 0,0 c 2.01,-0.584 17.59,4.95 19.033,5.406 11.665,3.635 23.29,7.436 35.037,10.779 38.616,11.016 71.331,17.171 111.647,15.964 13.154,-0.876 18.432,4.275 24.241,8.679 C 128.18,42.508 60.208,26.891 0,0 m -57.385,-25.938 c 53.439,31.274 109.152,54.6 169.304,66.619 31.549,6.302 64.832,7.106 88.579,1.938 -2.538,-3.582 -5.993,-5.975 -9.207,-8.551 C 186.14,29.958 180.478,26.051 176.055,21.61 165.717,11.254 153.989,2.595 143.541,-7.525 141.713,-9.277 140.144,-9.771 137.588,-8.604 111.301,3.326 83.588,5.17 55.347,2.449 18.923,-1.058 -15.554,-12.22 -49.687,-24.658 c -2.247,-0.806 -4.374,-2.285 -7.698,-1.28" style="fill:#5d5d5e;fill-opacity:1;fill-rule:evenodd;stroke:none" id="path42" />
        </g>
        <g id="g44" transform="translate(288.1569,229.7282)">
          <path d="m 0,0 c 4.657,0 8.075,0.108 11.472,-0.038 16.65,-0.638 32.797,2.432 48.728,6.742 21.792,5.9 43.09,13.591 65.22,18.34 9.803,2.081 19.785,2.903 29.593,4.639 13.921,2.486 27.802,2.65 41.704,1.644 28.077,-2.045 53.54,-10.502 73.048,-32.186 1.699,-1.882 3.728,-3.618 4.514,-6.265 -1.462,-1.023 -2.121,0.383 -2.867,0.912 -25.193,17.08 -53.232,22.286 -83.08,20.515 C 155.122,12.312 123.402,2.977 91.435,-5.134 74.648,-9.391 57.796,-12.586 40.36,-11.638 26.416,-10.87 13.325,-7.216 0,0" style="fill:#0fb899;fill-opacity:1;fill-rule:evenodd;stroke:none" id="path46" />
        </g>
        <g id="g48" transform="translate(260.2126,150.823)">
          <path d="m 0,0 c -1.716,-0.731 -3.452,-1.582 -5.205,-2.548 -1.754,-0.97 -3.343,-2.027 -4.769,-3.179 -1.424,-1.151 -2.584,-2.377 -3.479,-3.674 -0.895,-1.296 -1.342,-2.655 -1.342,-4.08 0,-1.136 0.145,-2.201 0.438,-3.206 0.292,-1.005 0.694,-1.881 1.206,-2.631 0.51,-0.75 1.087,-1.343 1.726,-1.779 0.639,-0.439 1.323,-0.659 2.055,-0.659 1.425,0 2.894,0.446 4.413,1.344 1.513,0.893 3.167,2.016 4.957,3.368 z M 17.92,-30.416 H 0 v 4.715 c -0.985,-0.842 -1.954,-1.611 -2.903,-2.304 -0.951,-0.691 -2.002,-1.307 -3.152,-1.836 -1.151,-0.529 -2.457,-0.938 -3.919,-1.232 -1.46,-0.292 -3.195,-0.439 -5.205,-0.439 -2.704,0 -5.143,0.385 -7.316,1.153 -2.174,0.765 -4.019,1.836 -5.535,3.204 -1.516,1.369 -2.676,2.987 -3.479,4.85 -0.804,1.864 -1.207,3.873 -1.207,6.029 0,2.265 0.431,4.301 1.289,6.109 0.858,1.81 2.028,3.443 3.507,4.905 1.48,1.459 3.214,2.777 5.206,3.949 1.991,1.166 4.129,2.225 6.411,3.175 2.283,0.95 4.649,1.825 7.097,2.63 2.448,0.805 4.861,1.59 7.233,2.358 L 0,7.288 v 5.864 c 0,1.862 -0.19,3.452 -0.575,4.768 -0.383,1.316 -0.914,2.383 -1.588,3.206 -0.678,0.822 -1.498,1.413 -2.464,1.78 -0.971,0.365 -2.058,0.548 -3.263,0.548 -1.424,0 -2.612,-0.183 -3.562,-0.548 -0.95,-0.367 -1.717,-0.868 -2.301,-1.506 -0.586,-0.641 -1.007,-1.38 -1.261,-2.22 -0.256,-0.842 -0.384,-1.736 -0.384,-2.685 0,-1.132 -0.12,-2.21 -0.356,-3.233 -0.238,-1.024 -0.657,-1.928 -1.261,-2.712 -0.602,-0.786 -1.424,-1.416 -2.465,-1.893 -1.042,-0.475 -2.384,-0.711 -4.028,-0.711 -1.243,0 -2.384,0.191 -3.426,0.576 -1.041,0.38 -1.926,0.912 -2.657,1.588 -0.732,0.675 -1.307,1.48 -1.726,2.41 -0.421,0.933 -0.63,1.929 -0.63,2.99 0,2.043 0.693,3.935 2.081,5.671 1.389,1.735 3.262,3.241 5.618,4.521 2.356,1.277 5.077,2.273 8.164,2.984 3.088,0.717 6.349,1.071 9.782,1.071 4.201,0 7.828,-0.384 10.879,-1.153 3.048,-0.765 5.563,-1.844 7.536,-3.232 1.973,-1.39 3.434,-3.067 4.383,-5.043 0.951,-1.971 1.424,-4.182 1.424,-6.629 z" style="fill:#0fb899;fill-opacity:1;fill-rule:nonzero;stroke:none" id="path50" />
        </g>
        <g id="g52" transform="translate(296.2111,136.8483)">
          <path d="m 0,0 c 1.062,-3.18 2.558,-5.672 4.495,-7.48 1.936,-1.81 4.364,-2.713 7.288,-2.713 1.242,0 2.373,0.164 3.397,0.494 1.023,0.328 1.901,0.767 2.629,1.313 0.732,0.55 1.3,1.188 1.702,1.919 0.4,0.729 0.601,1.516 0.601,2.356 0,1.389 -0.264,2.633 -0.795,3.726 -0.529,1.097 -1.251,2.084 -2.163,2.96 -0.915,0.875 -2.01,1.691 -3.288,2.438 -1.28,0.748 -2.65,1.453 -4.11,2.112 -2.303,1.021 -4.606,2.138 -6.905,3.343 -2.302,1.204 -4.377,2.583 -6.22,4.136 -1.847,1.553 -3.334,3.325 -4.468,5.316 -1.131,1.991 -1.699,4.302 -1.699,6.933 0,2.485 0.523,4.75 1.563,6.793 1.04,2.047 2.494,3.801 4.356,5.262 1.864,1.46 4.101,2.592 6.714,3.398 2.61,0.803 5.488,1.207 8.632,1.207 2.884,0 5.443,-0.267 7.672,-0.794 2.227,-0.531 4.192,-1.3 5.891,-2.304 1.698,-1.006 3.185,-2.218 4.465,-3.645 1.279,-1.424 2.447,-3.032 3.507,-4.821 L 22.963,28.332 c -0.548,1.899 -1.215,3.368 -2.001,4.411 -0.787,1.043 -1.589,1.817 -2.41,2.327 -0.823,0.514 -1.647,0.826 -2.467,0.934 -0.823,0.107 -1.544,0.164 -2.164,0.164 -1.097,0 -2.138,-0.119 -3.126,-0.355 C 9.81,35.574 8.932,35.229 8.167,34.771 7.398,34.313 6.787,33.738 6.329,33.043 5.872,32.349 5.645,31.563 5.645,30.686 c 0,-1.13 0.292,-2.19 0.878,-3.177 0.582,-0.985 1.388,-1.908 2.409,-2.765 1.025,-0.859 2.238,-1.674 3.646,-2.44 1.405,-0.77 2.932,-1.499 4.576,-2.191 2.519,-1.024 4.96,-2.167 7.315,-3.426 2.356,-1.262 4.447,-2.683 6.274,-4.275 1.827,-1.589 3.298,-3.353 4.411,-5.287 1.116,-1.939 1.673,-4.11 1.673,-6.523 0,-2.556 -0.421,-4.951 -1.26,-7.178 -0.841,-2.23 -2.211,-4.174 -4.11,-5.837 -1.901,-1.661 -4.357,-2.968 -7.37,-3.92 -3.016,-0.947 -6.68,-1.424 -10.989,-1.424 -3.653,0 -6.758,0.422 -9.316,1.264 -2.559,0.838 -4.723,1.925 -6.495,3.258 -1.771,1.336 -3.232,2.822 -4.382,4.465 -1.153,1.648 -2.167,3.273 -3.042,4.878 z" style="fill:#0fb899;fill-opacity:1;fill-rule:nonzero;stroke:none" id="path54" />
        </g>
        <g id="g56" transform="translate(375.3361,160.6882)">
          <path d="m 0,0 c 0,3.031 -0.491,5.341 -1.479,6.931 -0.985,1.589 -2.266,2.383 -3.836,2.383 -0.731,0 -1.615,-0.157 -2.658,-0.466 -1.04,-0.31 -2.155,-0.757 -3.342,-1.343 -1.186,-0.584 -2.383,-1.271 -3.588,-2.054 -1.207,-0.786 -2.321,-1.637 -3.345,-2.548 v -43.184 h -18.03 v 82.475 l 18.03,4.934 V 13.919 c 2.741,2.007 5.791,3.496 9.152,4.466 3.361,0.966 6.632,1.45 9.81,1.45 2.375,0 4.612,-0.476 6.714,-1.423 2.101,-0.95 3.925,-2.238 5.48,-3.864 1.551,-1.625 2.776,-3.536 3.672,-5.727 0.893,-2.191 1.342,-4.529 1.342,-7.013 v -42.089 l -17.922,0 z" style="fill:#0fb899;fill-opacity:1;fill-rule:nonzero;stroke:none" id="path58" />
        </g>
        <g id="g60" transform="translate(430.8981,150.823)">
          <path d="m 0,0 c -1.717,-0.731 -3.452,-1.582 -5.206,-2.548 -1.753,-0.97 -3.342,-2.027 -4.767,-3.179 -1.424,-1.151 -2.585,-2.377 -3.481,-3.674 -0.896,-1.296 -1.342,-2.655 -1.342,-4.08 0,-1.136 0.146,-2.201 0.439,-3.206 0.292,-1.005 0.694,-1.881 1.204,-2.631 0.512,-0.75 1.087,-1.343 1.728,-1.779 0.637,-0.439 1.324,-0.659 2.054,-0.659 1.427,0 2.895,0.446 4.413,1.344 1.514,0.893 3.168,2.016 4.958,3.368 z M 17.919,-30.416 H 0 v 4.715 c -0.985,-0.842 -1.955,-1.611 -2.903,-2.304 -0.952,-0.691 -2.002,-1.307 -3.152,-1.836 -1.151,-0.529 -2.457,-0.938 -3.918,-1.232 -1.463,-0.292 -3.198,-0.439 -5.205,-0.439 -2.705,0 -5.143,0.385 -7.318,1.153 -2.174,0.765 -4.019,1.836 -5.535,3.204 -1.515,1.369 -2.675,2.987 -3.478,4.85 -0.804,1.864 -1.207,3.873 -1.207,6.029 0,2.265 0.428,4.301 1.288,6.109 0.858,1.81 2.029,3.443 3.507,4.905 1.48,1.459 3.215,2.777 5.206,3.949 1.991,1.166 4.129,2.225 6.413,3.175 2.281,0.95 4.649,1.825 7.095,2.63 2.449,0.805 4.858,1.59 7.233,2.358 L 0,7.288 v 5.864 c 0,1.862 -0.19,3.452 -0.575,4.768 -0.384,1.316 -0.914,2.383 -1.589,3.206 -0.677,0.822 -1.497,1.413 -2.467,1.78 -0.967,0.365 -2.054,0.548 -3.259,0.548 -1.426,0 -2.613,-0.183 -3.562,-0.548 -0.951,-0.367 -1.719,-0.868 -2.302,-1.506 -0.585,-0.641 -1.006,-1.38 -1.26,-2.22 -0.256,-0.842 -0.384,-1.736 -0.384,-2.685 0,-1.132 -0.12,-2.21 -0.358,-3.233 -0.238,-1.024 -0.656,-1.928 -1.26,-2.712 -0.603,-0.786 -1.424,-1.416 -2.466,-1.893 -1.04,-0.475 -2.384,-0.711 -4.027,-0.711 -1.242,0 -2.384,0.191 -3.424,0.576 -1.042,0.38 -1.928,0.912 -2.66,1.588 -0.73,0.675 -1.307,1.48 -1.725,2.41 -0.421,0.933 -0.63,1.929 -0.63,2.99 0,2.043 0.693,3.935 2.084,5.671 1.386,1.735 3.258,3.241 5.615,4.521 2.357,1.277 5.078,2.273 8.166,2.984 3.087,0.717 6.348,1.071 9.782,1.071 4.199,0 7.827,-0.384 10.877,-1.153 3.05,-0.765 5.564,-1.844 7.536,-3.232 1.974,-1.39 3.434,-3.067 4.383,-5.043 0.951,-1.971 1.424,-4.182 1.424,-6.629 z" style="fill:#0fb899;fill-opacity:1;fill-rule:nonzero;stroke:none" id="path62" />
        </g>
        <g id="g64" transform="translate(488.652,142.986)">
          <path d="m 0,0 c 1.317,0 2.584,0.365 3.81,1.098 1.223,0.729 2.319,1.715 3.289,2.957 0.965,1.241 1.735,2.658 2.301,4.247 0.564,1.59 0.849,3.244 0.849,4.96 0,2.521 -0.33,4.895 -0.988,7.125 -0.656,2.227 -1.553,4.172 -2.683,5.835 -1.136,1.662 -2.449,2.979 -3.946,3.945 -1.5,0.967 -3.09,1.454 -4.77,1.454 -1.607,0 -2.976,-0.384 -4.108,-1.151 -1.134,-0.768 -2.074,-1.803 -2.823,-3.099 -0.75,-1.297 -1.298,-2.802 -1.644,-4.52 -0.347,-1.714 -0.521,-3.544 -0.521,-5.479 0,-2.339 0.265,-4.558 0.796,-6.657 C -9.91,8.612 -9.151,6.769 -8.163,5.179 -7.178,3.59 -5.992,2.33 -4.603,1.398 -3.215,0.465 -1.68,0 0,0 m 12.878,-23.29 c -2.665,0 -5.334,0.047 -7.999,0.135 -2.668,0.095 -5.199,0.213 -7.591,0.356 -2.395,0.147 -4.558,0.303 -6.495,0.469 -1.936,0.164 -3.507,0.317 -4.712,0.465 -1.28,-1.024 -2.255,-2.276 -2.931,-3.756 -0.677,-1.48 -1.014,-2.93 -1.014,-4.355 0,-1.096 0.42,-2.147 1.26,-3.152 0.841,-1.002 2.099,-1.891 3.781,-2.659 1.68,-0.767 3.773,-1.378 6.274,-1.834 2.503,-0.455 5.417,-0.685 8.742,-0.685 3.616,0 6.848,0.266 9.7,0.793 2.848,0.532 5.268,1.215 7.259,2.055 1.992,0.842 3.509,1.793 4.551,2.851 1.04,1.059 1.559,2.121 1.559,3.181 0,1.058 -0.292,1.981 -0.874,2.764 -0.586,0.787 -1.418,1.428 -2.494,1.919 -1.08,0.494 -2.375,0.859 -3.891,1.097 -1.516,0.235 -3.226,0.356 -5.125,0.356 M 35.896,32.331 V 26.14 H 25.102 c 0.948,-1.46 1.713,-3.034 2.297,-4.711 0.587,-1.684 0.879,-3.507 0.879,-5.483 0,-3.251 -0.74,-6.156 -2.217,-8.713 C 24.577,4.677 22.505,2.521 19.837,0.768 17.171,-0.988 13.984,-2.33 10.275,-3.262 6.567,-4.193 2.466,-4.658 -2.027,-4.658 c -1.28,0 -2.612,0.082 -4,0.246 -1.39,0.166 -2.65,0.355 -3.782,0.575 -0.767,-0.622 -1.379,-1.358 -1.835,-2.219 -0.459,-0.859 -0.686,-1.763 -0.686,-2.712 0,-0.294 0.081,-0.567 0.247,-0.823 0.164,-0.258 0.557,-0.503 1.177,-0.738 0.622,-0.239 1.526,-0.459 2.714,-0.658 1.185,-0.204 2.786,-0.393 4.794,-0.575 2.01,-0.182 4.521,-0.359 7.538,-0.523 3.012,-0.162 6.636,-0.317 10.876,-0.465 3.91,-0.146 7.197,-0.559 9.866,-1.233 2.665,-0.675 4.809,-1.57 6.438,-2.687 1.626,-1.113 2.794,-2.428 3.506,-3.944 0.713,-1.517 1.07,-3.206 1.07,-5.069 0,-3.288 -0.877,-6.264 -2.631,-8.932 -1.753,-2.669 -4.275,-4.932 -7.564,-6.798 -3.288,-1.859 -7.306,-3.303 -12.054,-4.326 -4.751,-1.024 -10.104,-1.535 -16.056,-1.535 -5.37,0 -10.067,0.285 -14.087,0.848 -4.019,0.568 -7.368,1.372 -10.056,2.41 -2.683,1.045 -4.693,2.295 -6.025,3.755 -1.336,1.461 -2.003,3.087 -2.003,4.88 0,1.312 0.385,2.612 1.153,3.889 0.766,1.28 1.761,2.551 2.985,3.81 1.225,1.259 2.612,2.494 4.166,3.698 1.551,1.205 3.132,2.413 4.74,3.616 -2.267,0.769 -4.082,1.729 -5.452,2.877 -1.371,1.149 -2.057,2.456 -2.057,3.921 0,1.019 0.312,2.081 0.934,3.178 0.62,1.094 1.468,2.174 2.548,3.232 1.076,1.058 2.329,2.062 3.752,3.015 1.424,0.95 2.961,1.788 4.605,2.521 -1.936,0.874 -3.671,1.841 -5.206,2.902 -1.536,1.061 -2.843,2.266 -3.92,3.618 -1.077,1.352 -1.907,2.869 -2.493,4.549 -0.585,1.681 -0.875,3.581 -0.875,5.7 0,3.323 0.739,6.282 2.219,8.877 1.478,2.595 3.514,4.786 6.11,6.578 2.592,1.787 5.651,3.14 9.178,4.053 3.525,0.913 7.335,1.372 11.427,1.372 1.936,0 3.844,-0.105 5.726,-0.304 1.881,-0.2 3.645,-0.485 5.289,-0.849 1.644,-0.366 3.113,-0.776 4.411,-1.234 1.296,-0.456 2.328,-0.957 3.097,-1.507 z" style="fill:#5d5d5e;fill-opacity:1;fill-rule:nonzero;stroke:none" id="path66" />
        </g>
        <g id="g68" transform="translate(560.8757,150.823)">
          <path d="m 0,0 c -1.716,-0.731 -3.451,-1.582 -5.206,-2.548 -1.753,-0.97 -3.343,-2.027 -4.767,-3.179 -1.424,-1.151 -2.584,-2.377 -3.481,-3.674 -0.895,-1.296 -1.343,-2.655 -1.343,-4.08 0,-1.136 0.148,-2.201 0.44,-3.206 0.292,-1.005 0.694,-1.881 1.204,-2.631 0.511,-0.75 1.088,-1.343 1.728,-1.779 0.636,-0.439 1.324,-0.659 2.054,-0.659 1.428,0 2.894,0.446 4.414,1.344 1.513,0.893 3.166,2.016 4.957,3.368 z M 17.92,-30.416 H 0 v 4.715 c -0.985,-0.842 -1.955,-1.611 -2.903,-2.304 -0.951,-0.691 -2.002,-1.307 -3.152,-1.836 -1.151,-0.529 -2.458,-0.938 -3.918,-1.232 -1.463,-0.292 -3.197,-0.439 -5.206,-0.439 -2.705,0 -5.141,0.385 -7.316,1.153 -2.174,0.765 -4.021,1.836 -5.536,3.204 -1.516,1.369 -2.675,2.987 -3.478,4.85 -0.804,1.864 -1.208,3.873 -1.208,6.029 0,2.265 0.429,4.301 1.29,6.109 0.857,1.81 2.028,3.443 3.507,4.905 1.48,1.459 3.215,2.777 5.205,3.949 1.991,1.166 4.13,2.225 6.413,3.175 2.281,0.95 4.65,1.825 7.095,2.63 2.449,0.805 4.858,1.59 7.233,2.358 L 0,7.288 v 5.864 c 0,1.862 -0.19,3.452 -0.575,4.768 -0.384,1.316 -0.915,2.383 -1.589,3.206 -0.678,0.822 -1.497,1.413 -2.467,1.78 -0.968,0.365 -2.055,0.548 -3.259,0.548 -1.426,0 -2.614,-0.183 -3.562,-0.548 -0.951,-0.367 -1.718,-0.868 -2.303,-1.506 -0.584,-0.641 -1.006,-1.38 -1.258,-2.22 -0.258,-0.842 -0.385,-1.736 -0.385,-2.685 0,-1.132 -0.12,-2.21 -0.358,-3.233 -0.237,-1.024 -0.655,-1.928 -1.26,-2.712 -0.603,-0.786 -1.424,-1.416 -2.466,-1.893 -1.04,-0.475 -2.384,-0.711 -4.028,-0.711 -1.24,0 -2.383,0.191 -3.424,0.576 -1.042,0.38 -1.926,0.912 -2.66,1.588 -0.728,0.675 -1.306,1.48 -1.724,2.41 -0.42,0.933 -0.629,1.929 -0.629,2.99 0,2.043 0.691,3.935 2.083,5.671 1.387,1.735 3.258,3.241 5.615,4.521 2.357,1.277 5.078,2.273 8.166,2.984 3.087,0.717 6.349,1.071 9.783,1.071 4.198,0 7.826,-0.384 10.876,-1.153 3.05,-0.765 5.565,-1.844 7.536,-3.232 1.974,-1.39 3.435,-3.067 4.383,-5.043 0.951,-1.971 1.425,-4.182 1.425,-6.629 z" style="fill:#5d5d5e;fill-opacity:1;fill-rule:nonzero;stroke:none" id="path70" />
        </g>
        <g id="g72" transform="translate(607.2858,120.4069)">
          <path d="M 0,0 H -17.811 V 58.804 H 0 v -4.385 c 1.972,2.007 4.146,3.632 6.523,4.876 2.374,1.241 4.895,1.863 7.562,1.863 1.607,0 3.112,-0.211 4.521,-0.629 1.406,-0.422 2.629,-0.996 3.671,-1.725 1.04,-0.731 1.864,-1.573 2.465,-2.525 0.603,-0.949 0.904,-1.97 0.904,-3.068 0,-1.061 -0.201,-2.017 -0.6,-2.874 -0.402,-0.859 -0.959,-1.599 -1.673,-2.221 -0.711,-0.622 -1.535,-1.106 -2.465,-1.454 -0.933,-0.344 -1.929,-0.52 -2.986,-0.52 -1.428,0 -2.597,0.219 -3.507,0.659 -0.915,0.437 -1.739,0.933 -2.469,1.479 -0.73,0.55 -1.488,1.042 -2.272,1.482 -0.786,0.436 -1.746,0.656 -2.878,0.656 -0.584,0 -1.179,-0.228 -1.782,-0.685 C 4.413,49.275 3.818,48.673 3.234,47.924 2.649,47.176 2.083,46.308 1.537,45.319 0.987,44.334 0.476,43.328 0,42.309 Z" style="fill:#5d5d5e;fill-opacity:1;fill-rule:nonzero;stroke:none" id="path74" />
        </g>
        <g id="g76" transform="translate(636.1599,176.031)">
          <path d="M 0,0 17.81,4.931 V -55.624 H 0 Z m -0.769,21.975 c 0,1.208 0.246,2.337 0.74,3.397 0.494,1.062 1.178,1.982 2.053,2.768 0.878,0.786 1.902,1.405 3.072,1.863 1.168,0.458 2.409,0.684 3.726,0.684 1.316,0 2.556,-0.226 3.726,-0.684 1.169,-0.458 2.19,-1.077 3.068,-1.863 0.876,-0.786 1.571,-1.706 2.083,-2.768 0.51,-1.06 0.766,-2.189 0.766,-3.397 0,-1.206 -0.256,-2.339 -0.766,-3.397 -0.512,-1.061 -1.207,-1.974 -2.083,-2.739 -0.878,-0.768 -1.899,-1.379 -3.068,-1.837 -1.17,-0.458 -2.41,-0.685 -3.726,-0.685 -1.317,0 -2.558,0.227 -3.726,0.685 -1.17,0.458 -2.194,1.069 -3.072,1.837 -0.875,0.765 -1.559,1.678 -2.053,2.739 -0.494,1.058 -0.74,2.191 -0.74,3.397" style="fill:#5d5d5e;fill-opacity:1;fill-rule:nonzero;stroke:none" id="path78" />
        </g>
      </g>
    </g>
  </g>
</svg>